<?xml version="1.0" encoding="UTF-8"?>
<svg width="60px" height="60px" viewBox="0 0 60 60" version="1.1" xmlns="http://www.w3.org/2000/svg" xmlns:xlink="http://www.w3.org/1999/xlink">
    <title>Brand/Logotype/On Light</title>
    <g id="Brand/Logotype/On-Light" stroke="none" stroke-width="1" fill="none" fill-rule="evenodd">
        <polygon id="Fill-44-Copy-2" fill="#231F20" points="35.5495998 28.5240795 38.128093 28.5240795 38.128093 47.7860658 35.3568601 47.7860658 35.3568601 32.7983945 29.4346683 40.2438055 28.9250108 40.2438055 22.9342574 32.7983945 22.9342574 47.7860658 20.1764492 47.7860658 20.1764492 28.5240795 22.7870656 28.5240795 29.1872711 36.4350384"></polygon>
        <path d="M22.7870656,28.5240795 L29.1872711,36.4350384 L35.5495998,28.5240795 L38.128093,28.5240795 L38.128093,47.7860658 L35.3567163,47.7859219 L35.3567163,32.7982507 L30.5214423,38.8777027 L31.4803464,47.7859219 L26.8094492,47.7850795 L27.7690519,38.8079425 L22.9342574,32.7984904 L22.9334492,47.7850795 L20.1764492,47.7860658 L20.1764492,28.5240795 L22.7870656,28.5240795 Z" id="Combined-Shape-Copy-2" fill="#0ABD82"></path>
        <path d="M40.3436889,19.9374767 C39.2351957,19.6272712 38.0960176,19.4652164 36.9558807,19.3223397 C36.7684149,19.2940521 36.6634149,19.2561753 36.6245793,19.0461753 C36.3292368,17.4917918 35.0898533,12.6876822 33.0061546,13.0161069 C32.7932779,13.0151479 32.5688944,13.0482301 32.3325245,13.1187096 C31.362593,13.394874 30.4252642,13.8201479 29.4260861,13.9826822 C28.4273875,13.8201479 27.4900587,13.394874 26.5201272,13.119189 C26.2837574,13.0482301 26.0598533,13.0151479 25.8464971,13.0161069 C23.7642368,12.6872027 22.5238944,17.4869973 22.2285519,19.0461753 C22.1897163,19.2556959 22.0837574,19.295011 21.8967711,19.3223397 C20.7566341,19.4652164 19.617456,19.6272712 18.5089629,19.9374767 C18.1556067,20.0319288 17.987319,20.2433671 18.0007437,20.5574082 C18.0323875,21.3000795 18.5588259,21.9574082 19.0210176,22.504463 C20.3289629,24.0195315 21.8852642,25.2440521 23.5499218,26.3372027 C25.122045,27.3891206 27.027867,28.3815863 28.8914971,28.6309014 C29.0765656,28.624189 29.7756067,28.624189 29.9616341,28.6309014 C31.827182,28.3801479 33.7296478,27.3896 35.30273,26.3372027 C36.9673875,25.2440521 38.5236889,24.0195315 39.8316341,22.504463 C40.2938259,21.9578877 40.8207437,21.2996 40.8523875,20.5574082 C40.8653327,20.2433671 40.697045,20.0319288 40.3436889,19.9374767" id="Fill-52-Copy-2" fill="#2AA5DD"></path>
    </g>
</svg>